<?xml version="1.0" standalone="no"?>
<!DOCTYPE svg PUBLIC "-//W3C//DTD SVG 20010904//EN"
 "http://www.w3.org/TR/2001/REC-SVG-20010904/DTD/svg10.dtd">
<svg version="1.0" xmlns="http://www.w3.org/2000/svg"
 width="550.000000pt" height="550.000000pt" viewBox="0 0 550.000000 550.000000"
 preserveAspectRatio="xMidYMid meet">
<metadata>
Created by potrace 1.14, written by Peter Selinger 2001-2017
</metadata>
<g transform="translate(0.000000,550.000000) scale(0.100000,-0.100000)"
fill="#000000" stroke="none">
<path d="M2489 5095 c-184 -30 -364 -87 -523 -166 -557 -278 -928 -815 -986
-1429 -7 -78 -10 -575 -8 -1558 l3 -1444 33 -29 c24 -22 42 -29 72 -29 45 0
78 25 275 213 l120 114 178 -171 c192 -184 219 -206 257 -206 40 0 70 26 236
203 86 92 160 167 165 167 5 0 94 -83 198 -185 176 -172 192 -185 226 -185 20
0 46 5 58 11 12 6 101 89 197 185 l175 173 182 -174 c100 -96 193 -177 207
-181 14 -3 38 -3 52 0 14 4 106 85 207 181 100 96 185 175 190 175 5 0 90 -76
188 -170 113 -107 188 -171 202 -172 64 -4 98 11 122 56 15 28 16 153 12 1546
-3 1503 -3 1516 -25 1627 -140 727 -681 1277 -1407 1433 -130 28 -474 37 -606
15z m601 -238 c608 -145 1050 -598 1191 -1222 l23 -100 3 -1372 c2 -755 1
-1373 -3 -1373 -3 0 -61 52 -129 115 -125 115 -153 133 -201 121 -15 -4 -104
-83 -206 -181 -99 -96 -184 -175 -188 -175 -4 0 -84 74 -177 164 -93 90 -179
168 -190 175 -12 6 -39 11 -59 11 -36 0 -49 -11 -224 -186 l-187 -185 -196
190 c-186 181 -198 191 -234 191 -21 -1 -47 -6 -59 -13 -11 -7 -94 -90 -184
-185 -160 -170 -163 -172 -184 -155 -11 9 -95 90 -186 179 -166 164 -194 183
-246 170 -14 -4 -77 -54 -139 -111 -63 -58 -116 -105 -120 -105 -3 0 -4 613
-2 1363 3 1343 3 1363 24 1457 53 239 149 454 282 630 257 343 623 559 1056
624 17 2 120 3 230 1 172 -3 215 -7 305 -28z"/>
<path d="M2167 3380 c-130 -22 -256 -119 -318 -245 -33 -67 -34 -74 -34 -185
0 -114 1 -117 38 -192 107 -217 366 -307 582 -202 267 131 328 487 120 698
-63 64 -135 103 -222 121 -75 16 -95 17 -166 5z"/>
<path d="M3374 3375 c-301 -65 -442 -417 -270 -671 187 -277 605 -247 753 54
37 75 38 78 38 192 0 111 -1 118 -34 185 -64 130 -187 222 -327 245 -73 12
-84 12 -160 -5z"/>
</g>
</svg>
